<?xml version="1.0" encoding="iso-8859-1"?>
<!-- Generator: Adobe Illustrator 19.0.0, SVG Export Plug-In . SVG Version: 6.00 Build 0)  -->
<svg version="1.1" id="Capa_1" xmlns="http://www.w3.org/2000/svg" xmlns:xlink="http://www.w3.org/1999/xlink" x="0px" y="0px"
	 viewBox="0 0 512 512" style="enable-background:new 0 0 512 512;" xml:space="preserve">
<g>
	<g>
		<path d="M406,60h-45V45c0-24.813-20.187-45-45-45H196c-24.813,0-45,20.187-45,45v15h-45c-41.355,0-75,33.645-75,75v30
			c0,8.284,6.716,15,15,15h16.293l26.288,291.074C90.703,494.406,109.97,512,133.396,512h245.207
			c23.427,0,42.693-17.594,44.816-40.935L449.707,180H466c8.284,0,15-6.716,15-15v-30C481,93.645,447.355,60,406,60z M181,45
			c0-8.271,6.729-15,15-15h120c8.271,0,15,6.729,15,15v15H181V45z M393.542,468.357c-0.707,7.778-7.13,13.643-14.938,13.643H133.396
			c-7.809,0-14.231-5.865-14.938-13.633L92.416,180h327.168L393.542,468.357z M451,150H61v-15c0-24.813,20.187-45,45-45h300
			c24.813,0,45,20.187,45,45V150z"/>
	</g>
</g>
<g>
	<g>
		<path d="M256,210c-8.284,0-15,6.716-15,15v212c0,8.284,6.716,15,15,15s15-6.716,15-15V225C271,216.716,264.284,210,256,210z"/>
	</g>
</g>
<g>
	<g>
		<path d="M183.713,224.325c-0.373-8.276-7.385-14.686-15.659-14.31c-8.275,0.373-14.683,7.384-14.31,15.66l9.545,212
			c0.361,8.046,6.997,14.325,14.972,14.325c0.228,0,0.457-0.005,0.687-0.015c8.275-0.373,14.683-7.384,14.31-15.66L183.713,224.325z
			"/>
	</g>
</g>
<g>
	<g>
		<path d="M343.948,210.015c-8.285-0.372-15.288,6.035-15.659,14.31l-9.545,212c-0.374,8.276,6.033,15.287,14.309,15.66
			c0.229,0.01,0.459,0.015,0.687,0.015c7.974,0,14.611-6.28,14.973-14.325l9.545-212
			C358.631,217.399,352.224,210.388,343.948,210.015z"/>
	</g>
</g>
<g>
</g>
<g>
</g>
<g>
</g>
<g>
</g>
<g>
</g>
<g>
</g>
<g>
</g>
<g>
</g>
<g>
</g>
<g>
</g>
<g>
</g>
<g>
</g>
<g>
</g>
<g>
</g>
<g>
</g>
</svg>
